<svg width="53" height="32" viewBox="0 0 53 32" fill="none" xmlns="http://www.w3.org/2000/svg">
<path d="M37.4705 0.291462C35.4333 0.114441 32.9158 0.0986344 30.5528 0.0828289C26.7119 0.0559597 24.6814 3.16014 23.9995 4.78336C23.3194 6.40816 18.7159 18.6337 18.7159 18.6337C18.4388 19.3734 18.1567 20.1779 17.8729 21.0471C17.5873 21.9164 17.3371 22.8316 17.1221 23.7878C16.8601 22.8316 16.5797 21.9164 16.279 21.0471C15.9784 20.1779 15.6812 19.3734 15.3889 18.6337C15.3889 18.6337 10.3606 5.60999 9.15476 2.46629C7.94722 -0.675829 0 0.0796648 0 0.0796648L13.4962 31.7632H20.5667L31.7402 5.53254C31.7402 5.53254 33.3558 1.07541 37.3865 0.514314C38.317 0.38471 38.7452 0.4021 37.4705 0.291462Z" fill="white"/>
<path d="M41.9873 1.26397C44.1723 1.97205 45.9744 3.13218 47.4993 4.53886C49.0243 5.94396 50.2066 7.61617 51.0464 9.55076C51.8861 11.4869 52.306 13.5954 52.306 15.8713C52.306 18.1473 51.8861 20.2795 51.0464 22.2141C50.2066 24.1502 49.0243 25.8319 47.4993 27.2449C45.9744 28.6579 44.137 29.7754 41.9873 30.5657C39.8376 31.3559 37.4545 31.7795 34.8362 31.7795H25.9048C27.5171 26.3282 31.2455 26.1022 31.2455 26.1022H34.8345C36.3292 26.1022 37.661 25.8477 38.8316 25.3767C40.0022 24.9057 40.9914 24.2135 41.8009 23.3363C42.6104 22.4591 43.2301 21.3874 43.6618 20.1262C44.0934 18.8649 44.3083 17.4393 44.3083 15.8587C44.3083 14.2782 44.0917 12.8699 43.6618 11.6086C43.2301 10.3474 42.6104 9.26152 41.8009 8.38274C40.9914 7.50554 40.0022 6.79587 38.8316 6.32487C37.661 5.85387 36.3275 5.54725 34.8345 5.54725H33.323C33.323 5.54725 35.6037 -0.808122 41.9857 1.26239L41.9873 1.26397Z" fill="white"/>
</svg>
